# xmcd CD database file
#
# Track frame offsets:
#	150
#	18097
#	31735
#	60225
#	75907
#	86057
#	99072
#	106600
#	121395
#	139160
#	143932
#	154317
#	163912
#	177520
#	189082
#	199452
#	206332
#	210387
#	238967
#	275632
#
# Disc length: 4053 seconds
#
# Revision: 2
# Processed by: cddbd v1.5.2PL0 Copyright (c) Steve Scherf et al.
# Submitted via: CDex 1.51
#
DISCID=080fd314
DTITLE=セガ - シェンムー  一章 横須賀  [CD1]
DYEAR=2000
DGENRE=ゲーム音楽
TTITLE0=シェンムー ～莎木～
TTITLE1=シェンファ ～莎花～
TTITLE2=新たなる旅立ち
TTITLE3=運命の出会い
TTITLE4=クリスマスのドブ板通り
TTITLE5=背負った悲しみと共に
TTITLE6=桜花風舞
TTITLE7=望の告白
TTITLE8=望と涼
TTITLE9=雨
TTITLE10=苦悩の日々
TTITLE11=別れの涙
TTITLE12=悲しみ、希望
TTITLE13=夜明け
TTITLE14=旅立ち
TTITLE15=Antiquity Tree
TTITLE16=Flower Girl
TTITLE17=新たなる旅立ち (Arrange ver.)
TTITLE18=シェンムー ～莎木～ (Arrange ver.)
TTITLE19=シェンファ ～莎花～ (Arrange ver.)
EXTD=YEAR: 2000
EXTT0=
EXTT1=
EXTT2=
EXTT3=
EXTT4=
EXTT5=
EXTT6=
EXTT7=
EXTT8=
EXTT9=
EXTT10=
EXTT11=
EXTT12=
EXTT13=
EXTT14=
EXTT15=
EXTT16=
EXTT17=
EXTT18=
EXTT19=
PLAYORDER=
